/* XPM */
static char * ICO_MAIN_xpm[] = {
"64 64 25 1",
" 	c None",
".	c #436D67",
"+	c #96ADAA",
"@	c #D1DBD9",
"#	c #B9C9C6",
"$	c #72928D",
"%	c #DDE4E3",
"&	c #43B067",
"*	c #E8EDEC",
"=	c #FFFFFF",
"-	c #5B7F7A",
";	c #43CF67",
">	c #43E367",
",	c #E8EDED",
"'	c #8AA4A0",
")	c #F4F6F6",
"!	c #AFFDAB",
"~	c #A1B6B3",
"{	c #C5D2D0",
"]	c #4F7671",
"^	c #ADBFBD",
"/	c #668884",
"(	c #7E9B97",
"_	c #DCE4E3",
":	c #E2E9E8",
"................................................................",
"................................................................",
"................................................................",
"................................................................",
"................................................................",
"................................................................",
"................................................................",
"................................................................",
"................................................................",
"................................................................",
"................................................................",
"................................................................",
"................................................................",
"................................................................",
"...+@@@@@@@@@@#..............$@@@%&&&&&&&&&****************@....",
"...$===========-.............#====;;;;;;;;>================@....",
"....,=========='.............)====;;;;;;;;!================@....",
"....~=========={............$=====;;;;;;;>=================@....",
"....-===========]...........^=====;;;;;;;!=================@....",
".....@=========='...........,=====;;;;;;>==================@....",
".....'==========#........../======;;;;;;!==================@....",
".....])=========)..........+======;;;;;>===================@....",
"......#==========(........._======;;;;;!====$...................",
"......$==========#........-=======;;;;>=====$...................",
".......,=========,........'=======;;;;!=====$...................",
".......~==========/.......{=======;;;>======$...................",
".......-==========^......]========;;;!======$...................",
"........{=========,......(========;;>=======_@@@@@@@@@@@@@......",
"........'==========-.....#========;;!====================@......",
".........)=========+.....)========;>=====================@......",
".........#=========_....$=========;!=====================@......",
"........./==========-...^=========>======================@......",
"..........,========='...,=========!======================@......",
"..........+========={../=========:=======================@......",
"..........-==========].+========={==========#~~~~~~~~~~~~@......",
"...........{========='._========)~==========$...................",
"...........'=========#-=========#~==========$...................",
"............)========)'=========$~==========$...................",
"............^=========)========,.~==========$...................",
"............/==================~.~==========$...................",
"............._=================-.~==========$...................",
".............+================@..~=========================@....",
".............]================'..~=========================@....",
"..............{===============]..~=========================@....",
"..............(==============#...~=========================@....",
"...............)=============(...~=========================@....",
"...............^============,....~=========================@....",
".............../============^....~=========================@....",
"................#@@@@@@@@@@@-....~=========================@....",
"................................................................",
"................................................................",
"................................................................",
"................................................................",
"................................................................",
"................................................................",
"................................................................",
"................................................................",
"................................................................",
"................................................................",
"................................................................",
"................................................................",
"................................................................",
"................................................................",
"................................................................"};
